<svg xmlns="http://www.w3.org/2000/svg" width="257" height="254" viewBox="0 0 257 254" fill="none"><path fill-rule="evenodd" clip-rule="evenodd" d="M215.654 143.153L256.834 44.388V0.193359H88.7549V50.9998H196.979L156.83 143.153H215.654ZM198.8 183.576H139.219L108.59 253.877H169.488L198.8 183.576Z" fill="url(#paint0_linear_338_942)"></path><path d="M12.0992 114.526C14.854 114.526 17.2613 115.072 19.3212 116.164C21.3811 117.256 22.9694 118.795 24.0862 120.78C25.2279 122.741 25.7987 125.012 25.7987 127.593C25.7987 130.149 25.2279 132.42 24.0862 134.405C22.9694 136.391 21.3687 137.929 19.284 139.021C17.2241 140.113 14.8292 140.659 12.0992 140.659H2.30859V114.526H12.0992ZM11.6897 135.15C14.0971 135.15 15.9708 134.492 17.311 133.177C18.6511 131.861 19.3212 130 19.3212 127.593C19.3212 125.185 18.6511 123.312 17.311 121.971C15.9708 120.631 14.0971 119.961 11.6897 119.961H8.67436V135.15H11.6897Z" fill="white"></path><path d="M35.7212 114.526V140.659H29.3555V114.526H35.7212Z" fill="white"></path><path d="M56.6026 136.043H46.8492L45.2857 140.659H38.6221L48.0777 114.526H55.4486L64.9042 140.659H58.1661L56.6026 136.043ZM54.9646 131.129L51.7259 121.562L48.5244 131.129H54.9646Z" fill="white"></path><path d="M77.2373 140.92C75.3263 140.92 73.6139 140.61 72.1 139.989C70.5861 139.369 69.37 138.45 68.4518 137.234C67.5583 136.018 67.0868 134.554 67.0371 132.842H73.8124C73.9117 133.81 74.2467 134.554 74.8175 135.075C75.3883 135.572 76.1329 135.82 77.0511 135.82C77.9942 135.82 78.7387 135.609 79.2847 135.187C79.8307 134.74 80.1037 134.132 80.1037 133.363C80.1037 132.718 79.8804 132.184 79.4336 131.762C79.0117 131.34 78.4782 130.993 77.8329 130.72C77.2125 130.447 76.319 130.136 75.1526 129.789C73.465 129.268 72.0876 128.747 71.0204 128.225C69.9532 127.704 69.035 126.935 68.2656 125.917C67.4963 124.9 67.1116 123.572 67.1116 121.934C67.1116 119.502 67.9926 117.603 69.7547 116.238C71.5168 114.849 73.8124 114.154 76.6416 114.154C79.5205 114.154 81.841 114.849 83.603 116.238C85.3651 117.603 86.3082 119.514 86.4323 121.971H79.5453C79.4957 121.128 79.1855 120.47 78.6147 119.998C78.0438 119.502 77.3117 119.254 76.4183 119.254C75.6489 119.254 75.0285 119.465 74.557 119.887C74.0854 120.284 73.8496 120.867 73.8496 121.636C73.8496 122.48 74.2467 123.138 75.0409 123.609C75.8351 124.081 77.076 124.59 78.7636 125.136C80.4512 125.706 81.8162 126.252 82.8585 126.774C83.9257 127.295 84.8439 128.052 85.6133 129.044C86.3826 130.037 86.7673 131.315 86.7673 132.879C86.7673 134.368 86.3826 135.72 85.6133 136.937C84.8688 138.153 83.7768 139.121 82.3373 139.84C80.8979 140.56 79.1979 140.92 77.2373 140.92Z" fill="white"></path><path d="M108.365 114.526C111.12 114.526 113.527 115.072 115.587 116.164C117.647 117.256 119.235 118.795 120.352 120.78C121.493 122.741 122.064 125.012 122.064 127.593C122.064 130.149 121.493 132.42 120.352 134.405C119.235 136.391 117.634 137.929 115.549 139.021C113.49 140.113 111.095 140.659 108.365 140.659H98.5742V114.526H108.365ZM107.955 135.15C110.363 135.15 112.236 134.492 113.576 133.177C114.917 131.861 115.587 130 115.587 127.593C115.587 125.185 114.917 123.312 113.576 121.971C112.236 120.631 110.363 119.961 107.955 119.961H104.94V135.15H107.955Z" fill="white"></path><path d="M131.987 119.626V124.912H140.512V129.826H131.987V135.559H141.629V140.659H125.622V114.526H141.629V119.626H131.987Z" fill="white"></path><path d="M19.6558 158.821C19.1842 157.952 18.5017 157.294 17.6083 156.848C16.7397 156.376 15.7097 156.14 14.5185 156.14C12.4586 156.14 10.8082 156.823 9.5673 158.188C8.32641 159.528 7.70597 161.327 7.70597 163.586C7.70597 165.993 8.35122 167.879 9.64176 169.244C10.9571 170.584 12.7564 171.254 15.0396 171.254C16.6032 171.254 17.9185 170.857 18.9857 170.063C20.0777 169.269 20.8718 168.127 21.3682 166.638H13.29V161.948H27.1383V167.867C26.6668 169.455 25.8602 170.932 24.7186 172.297C23.6018 173.662 22.1748 174.766 20.4375 175.61C18.7003 176.454 16.7397 176.876 14.5557 176.876C11.9746 176.876 9.66658 176.317 7.63151 175.201C5.62127 174.059 4.04534 172.483 2.90372 170.473C1.78692 168.462 1.22852 166.167 1.22852 163.586C1.22852 161.005 1.78692 158.709 2.90372 156.699C4.04534 154.664 5.62127 153.088 7.63151 151.971C9.64176 150.829 11.9374 150.259 14.5185 150.259C17.6455 150.259 20.2762 151.016 22.4105 152.529C24.5697 154.043 25.9967 156.14 26.6916 158.821H19.6558Z" fill="white"></path><path d="M46.9326 172.073H37.1792L35.6157 176.69H28.9521L38.4077 150.556H45.7785L55.2341 176.69H48.4961L46.9326 172.073ZM45.2946 167.16L42.056 157.592L38.8545 167.16H45.2946Z" fill="white"></path><path d="M71.4385 176.69L66.0034 166.825H64.4771V176.69H58.1113V150.556H68.7954C70.8553 150.556 72.6049 150.916 74.0444 151.636C75.5086 152.356 76.6006 153.348 77.3203 154.614C78.0401 155.855 78.3999 157.245 78.3999 158.784C78.3999 160.521 77.9036 162.072 76.9108 163.437C75.943 164.802 74.5035 165.77 72.5925 166.341L78.6233 176.69H71.4385ZM64.4771 162.32H68.4231C69.5896 162.32 70.4582 162.035 71.029 161.464C71.6246 160.893 71.9225 160.086 71.9225 159.044C71.9225 158.051 71.6246 157.27 71.029 156.699C70.4582 156.128 69.5896 155.843 68.4231 155.843H64.4771V162.32Z" fill="white"></path><path d="M98.6642 172.073H88.9108L87.3472 176.69H80.6836L90.1392 150.556H97.5101L106.966 176.69H100.228L98.6642 172.073ZM97.0262 167.16L93.7875 157.592L90.5859 167.16H97.0262Z" fill="white"></path><path d="M133.222 176.69H126.857L116.21 160.57V176.69H109.844V150.556H116.21L126.857 166.75V150.556H133.222V176.69Z" fill="white"></path><path d="M156.636 150.556V155.656H149.712V176.69H143.346V155.656H136.422V150.556H156.636Z" fill="white"></path><path d="M166.197 150.556V176.69H159.831V150.556H166.197Z" fill="white"></path><path d="M187.078 172.073H177.325L175.761 176.69H169.098L178.553 150.556H185.924L195.38 176.69H188.642L187.078 172.073ZM185.44 167.16L182.201 157.592L179 167.16H185.44Z" fill="white"></path><path d="M10.1221 186.448C10.2327 186.108 10.7141 186.108 10.8246 186.448L13.0439 193.278C13.0933 193.43 13.2351 193.534 13.3951 193.534H20.5767C20.9345 193.534 21.0833 193.991 20.7938 194.202L14.9838 198.423C14.8543 198.517 14.8002 198.684 14.8496 198.836L17.0689 205.666C17.1794 206.006 16.79 206.289 16.5005 206.079L10.6905 201.858C10.561 201.764 10.3858 201.764 10.2563 201.858L4.44626 206.079C4.15681 206.289 3.76736 206.006 3.87792 205.666L6.09716 198.836C6.14661 198.684 6.09244 198.517 5.963 198.423L0.15295 194.202C-0.136497 193.991 0.0122597 193.534 0.370035 193.534H7.55165C7.71165 193.534 7.85346 193.43 7.9029 193.278L10.1221 186.448Z" fill="#FFBC00"></path><path d="M36.9776 186.448C37.0882 186.108 37.5695 186.108 37.6801 186.448L39.8993 193.278C39.9488 193.43 40.0906 193.533 40.2506 193.533H47.4322C47.79 193.533 47.9387 193.991 47.6493 194.202L41.8392 198.423C41.7098 198.517 41.6556 198.684 41.7051 198.836L43.9243 205.666C44.0349 206.006 43.6454 206.289 43.356 206.079L37.5459 201.858C37.4165 201.764 37.2412 201.764 37.1118 201.858L31.3017 206.079C31.0123 206.289 30.6228 206.006 30.7334 205.666L32.9526 198.836C33.0021 198.684 32.9479 198.517 32.8185 198.423L27.0084 194.202C26.719 193.991 26.8677 193.533 27.2255 193.533H34.4071C34.5671 193.533 34.7089 193.43 34.7584 193.278L36.9776 186.448Z" fill="#FFBC00"></path><path d="M64.0441 186.448C64.1546 186.108 64.636 186.108 64.7466 186.448L66.9658 193.278C67.0153 193.43 67.1571 193.533 67.3171 193.533H74.4986C74.8564 193.533 75.0051 193.991 74.7157 194.202L68.9057 198.423C68.7763 198.517 68.7221 198.684 68.7715 198.836L70.9908 205.666C71.1013 206.006 70.7119 206.289 70.4225 206.079L64.6123 201.858C64.4829 201.764 64.3077 201.764 64.1782 201.858L58.3682 206.079C58.0787 206.289 57.6892 206.006 57.7998 205.666L60.019 198.836C60.0684 198.684 60.0144 198.517 59.8849 198.423L54.0749 194.202C53.7854 193.991 53.9341 193.533 54.2919 193.533H61.4736C61.6336 193.533 61.7754 193.43 61.8248 193.278L64.0441 186.448Z" fill="#FFBC00"></path><path d="M91.1094 186.448C91.2199 186.108 91.7013 186.108 91.8119 186.448L94.0311 193.278C94.0806 193.43 94.2224 193.533 94.3824 193.533H101.564C101.922 193.533 102.071 193.991 101.781 194.202L95.971 198.423C95.8416 198.517 95.7874 198.684 95.8369 198.836L98.0561 205.666C98.1667 206.006 97.7772 206.289 97.4878 206.079L91.6777 201.858C91.5483 201.764 91.373 201.764 91.2436 201.858L85.4335 206.079C85.1441 206.289 84.7546 206.006 84.8652 205.666L87.0844 198.836C87.1339 198.684 87.0797 198.517 86.9502 198.423L81.1402 194.202C80.8508 193.991 80.9995 193.533 81.3573 193.533H88.5389C88.6989 193.533 88.8407 193.43 88.8901 193.278L91.1094 186.448Z" fill="#FFBC00"></path><path d="M118.175 186.448C118.286 186.108 118.767 186.108 118.878 186.448L121.097 193.278C121.147 193.43 121.288 193.533 121.448 193.533H128.63C128.988 193.533 129.137 193.991 128.847 194.202L123.037 198.423C122.908 198.517 122.853 198.684 122.903 198.836L125.122 205.666C125.233 206.006 124.843 206.289 124.554 206.079L118.744 201.858C118.614 201.764 118.439 201.764 118.31 201.858L112.499 206.079C112.21 206.289 111.821 206.006 111.931 205.666L114.15 198.836C114.2 198.684 114.146 198.517 114.016 198.423L108.206 194.202C107.917 193.991 108.065 193.533 108.423 193.533H115.605C115.765 193.533 115.907 193.43 115.956 193.278L118.175 186.448Z" fill="#FFBC00"></path><defs><linearGradient id="paint0_linear_338_942" x1="88.7549" y1="0.193359" x2="341.724" y2="314.663" gradientUnits="userSpaceOnUse"><stop stop-color="#E1227F"></stop><stop offset="1" stop-color="#801BB7"></stop></linearGradient></defs></svg>